<svg height="512" viewBox="0 0 512 512" width="512" xmlns="http://www.w3.org/2000/svg"><g id="Baby_and_stork" data-name="Baby and stork"><g id="Flat"><path d="m188.281 368h-20.281a8 8 0 0 1 0-16h11.719l29.625-44.437a8 8 0 1 1 13.312 8.875z" fill="#525252"/><path d="m132.281 368h-20.281a8 8 0 0 1 0-16h11.719l29.625-44.437a8 8 0 1 1 13.312 8.875z" fill="#525252"/><circle cx="456" cy="408" fill="#ffe7de" r="56"/><path d="m319.565 453.714-24.635-6.957a15.359 15.359 0 1 1 8.349-29.562l24.635 6.957z" fill="#ffe7de"/><path d="m327.652 415.418-24.636-6.957a15.359 15.359 0 1 1 8.349-29.562l24.635 6.957z" fill="#ffe7de"/><path d="m400.41 512a150.437 150.437 0 0 1 -93.328-32.03l-4-3.118 74.929-332.852h44.8l74.928 332.852-4 3.118a150.439 150.439 0 0 1 -93.329 32.03z" fill="#f8bbd0"/><path d="m422.777 112h-45.554l-7.562-45.37a16 16 0 0 1 15.783-18.63h29.112a16 16 0 0 1 15.783 18.63z" fill="#f8bbd0"/><path d="m512 160h-176v-64h120a56.064 56.064 0 0 1 56 56z" fill="#c9b28f"/><path d="m232 320h-48a104.118 104.118 0 0 1 -104-104v-8h22.7c-60.554-27.853-102.7-89.1-102.7-160v-48h176a64.072 64.072 0 0 1 64 64v152a8 8 0 0 0 16 0v-87.175c0-31.242 25.046-56.734 55.832-56.825h.168a56 56 0 0 1 3.71 111.878l-.216.015a12.215 12.215 0 0 0 -11.494 12.132v51.975a72.081 72.081 0 0 1 -72 72z" fill="#ededed"/><g fill="#d6d5d4"><path d="m160 56a8 8 0 0 1 -8 8h-89.35a90.89 90.89 0 0 1 -62.65-25.29v-25a74.761 74.761 0 0 0 62.65 34.29h89.35a8 8 0 0 1 8 8z"/><path d="m160 104a8 8 0 0 1 -8 8h-76.77a114.067 114.067 0 0 1 -70.72-24.37v-.01a173.554 173.554 0 0 1 -3.97-25.87 98.051 98.051 0 0 0 74.69 34.25h76.77a8 8 0 0 1 8 8z"/><path d="m160 152a8 8 0 0 1 -8 8h-80a87.772 87.772 0 0 1 -38.63-9 175.262 175.262 0 0 1 -20.73-37.52 7.962 7.962 0 0 1 1.76 1.72 72.365 72.365 0 0 0 57.6 28.8h80a8 8 0 0 1 8 8z"/><path d="m160 200a8 8 0 0 0 -8-8h-77.079a176.08 176.08 0 0 0 27.779 16h49.3a8 8 0 0 0 8-8z"/></g><circle cx="312" cy="120" fill="#525252" r="8"/><path d="m160 280a232.081 232.081 0 0 1 -64.237-9.017 104.018 104.018 0 0 0 88.237 49.017h48a72.081 72.081 0 0 0 72-72v-18.1a231 231 0 0 1 -144 50.1z" fill="#e3e3e3"/><circle cx="196" cy="44" fill="#fff" r="20"/><circle cx="212" cy="92" fill="#fff" r="12"/><circle cx="396" cy="236" fill="#fce4ec" r="20"/><circle cx="412" cy="284" fill="#fce4ec" r="12"/><circle cx="396" cy="116" fill="#dbd0c1" r="12"/><circle cx="424" cy="128" fill="#dbd0c1" r="8"/><path d="m480.639 101.727a115.957 115.957 0 0 1 -100.639 58.273h132v-8a56.059 56.059 0 0 0 -31.361-50.273z" fill="#c1a784"/><path d="m463.458 324.572a204.272 204.272 0 0 1 -153.235 120.555l-7.141 31.725 4 3.118a151.983 151.983 0 0 0 186.656 0l4-3.118z" fill="#f4abc3"/></g></g></svg>